# xmcd
#
# Track frame offsets: 
#        150
#        15854
#        27535
#        40301
#        51900
#        70032
#        84757
#        97189
#        112064
#        125474
#        140506
#        153221
#        168153
#        185540
#        201500
#        213626
#        230199
#        240813
#        256465
#        270437
#
# Disc length: 3768 seconds
#
# Revision: 0
# Processed by: cddbd v1.5.2PL0 Copyright (c) Steve Scherf et al.
# Submitted via: ExactAudioCopy v0.99pb4
#
DISCID=160eb614
DTITLE=Henk Wijngaard - Alle 40 Goed - CD 2 
DYEAR=2010
DGENRE=Chanson
TTITLE0='n Sneeuwwitte Bruidsjurk
TTITLE1=Ik Heb M'n Wagen Volgeladen
TTITLE2=Ik Heb 'n Truck Als M'n Woning
TTITLE3=Als Chauffeur Ben Ik Geboren
TTITLE4=Blij Dat Ik Rij
TTITLE5=De Zon Schijnt Weer In M'n Cabine
TTITLE6=Asfalt Rocker
TTITLE7=Zolang De Motor Draait
TTITLE8=Bak Roest Op 18 Wielen
TTITLE9=Weg Van De Snelweg
TTITLE10=Als 'n Wals
TTITLE11=120 Varkens Naar Beiroet
TTITLE12=Geloof, Hoop En Liefde
TTITLE13=Heimwee Naar Jou
TTITLE14=Ik Ben Voor De Liefde
TTITLE15=Wie Niet Weg Is Wordt Gezien
TTITLE16=Gooi Nog Eens 'n Blok Op 't Vuur Schat
TTITLE17=Wielen Branden Op De Baan
TTITLE18=Truckcar Race
TTITLE19=Trucker Ole
EXTD=
EXTT0=
EXTT1=
EXTT2=
EXTT3=
EXTT4=
EXTT5=
EXTT6=
EXTT7=
EXTT8=
EXTT9=
EXTT10=
EXTT11=
EXTT12=
EXTT13=
EXTT14=
EXTT15=
EXTT16=
EXTT17=
EXTT18=
EXTT19=
PLAYORDER=
